<?xml version="1.0" standalone="no"?>
<!DOCTYPE svg PUBLIC "-//W3C//DTD SVG 20010904//EN"
 "http://www.w3.org/TR/2001/REC-SVG-20010904/DTD/svg10.dtd">
<svg version="1.0" xmlns="http://www.w3.org/2000/svg"
 width="260.000000pt" height="260.000000pt" viewBox="0 0 260.000000 260.000000"
 preserveAspectRatio="xMidYMid meet">
<metadata>
Created by potrace 1.11, written by Peter Selinger 2001-2013
</metadata>
<g transform="translate(0.000000,260.000000) scale(0.100000,-0.100000)"
fill="#000000" stroke="none">
<path d="M382 1352 c-56 -163 -102 -301 -102 -305 0 -5 14 -7 32 -5 30 3 33 7
61 91 l29 88 95 -3 96 -3 32 -85 c32 -84 33 -85 69 -88 36 -3 36 -3 25 25 -6
15 -55 145 -109 288 -54 143 -102 268 -105 278 -4 9 -10 17 -14 17 -3 0 -52
-134 -109 -298z m157 20 l39 -102 -79 0 c-43 0 -79 4 -79 8 0 8 53 170 66 202
4 8 8 10 10 5 2 -6 22 -56 43 -113z"/>
<path d="M1127 1643 c-4 -3 -7 -141 -7 -305 l0 -298 185 0 185 0 0 30 0 30
-145 0 -145 0 0 275 0 275 -33 0 c-19 0 -37 -3 -40 -7z"/>
<path d="M1910 1642 c0 -5 34 -71 75 -146 41 -75 75 -142 75 -147 0 -6 -31
-68 -69 -137 -37 -70 -73 -137 -80 -149 -11 -22 -10 -23 26 -23 l38 0 64 120
64 120 66 -117 c65 -115 67 -118 104 -121 20 -2 37 -1 37 2 0 3 -36 70 -80
149 -44 79 -80 149 -80 156 0 7 32 74 70 150 39 76 70 141 70 145 0 3 -13 6
-30 6 -26 0 -33 -8 -66 -67 -20 -38 -49 -90 -64 -116 l-27 -48 -64 113 c-59
105 -66 113 -96 116 -18 2 -33 -1 -33 -6z"/>
</g>
</svg>
