<?xml version="1.0" encoding="UTF-8" standalone="no"?>
<svg width="22px" height="18px" viewBox="0 0 22 18" version="1.1" xmlns="http://www.w3.org/2000/svg" xmlns:xlink="http://www.w3.org/1999/xlink">
    <!-- Generator: Sketch 3.8.3 (29802) - http://www.bohemiancoding.com/sketch -->
    <title>arrow</title>
    <desc>Created with Sketch.</desc>
    <defs></defs>
    <g id="Page-1" stroke="none" stroke-width="1" fill="none" fill-rule="evenodd">
        <g id="Desktop-HD-Copy-13" transform="translate(-670.000000, -738.000000)" fill="#D2D9DE">
            <path d="M680.653119,757.463821 C680.771498,757.5822 680.932073,757.648703 681.099592,757.648703 C681.267006,757.648703 681.427581,757.5822 681.54596,757.463821 L689.581738,749.427937 C689.828388,749.181393 689.828388,748.78164 689.581738,748.535096 C689.3353,748.288552 688.935336,748.288552 688.689003,748.535096 L681.099592,756.124507 L673.510181,748.535096 C673.263637,748.288552 672.863779,748.288552 672.61734,748.535096 C672.370796,748.78164 672.370796,749.181393 672.61734,749.427937 L680.653119,757.463821 Z M681.099592,754.091966 C681.448205,754.091966 681.730947,753.809224 681.730947,753.460611 L681.730947,736.685409 C681.730947,736.336796 681.448205,736.054054 681.099592,736.054054 C680.750979,736.054054 680.468237,736.336796 680.468237,736.685409 L680.468237,753.460611 C680.468237,753.809329 680.750874,754.091966 681.099592,754.091966 Z" id="arrow" transform="translate(681.099579, 746.851378) rotate(-90.000000) translate(-681.099579, -746.851378) "></path>
        </g>
    </g>
</svg>